# xmcd
#
# Track frame offsets:
#	150
#	17738
#	41996
#	60790
#	82206
#	97752
#	116305
#	134072
#	161544
#	181287
#	201350
#	227398
#
# Disc length: 3292 seconds
#
# Revision: 2
# Processed by: cddbd v1.4PL0 Copyright (c) Steve Scherf et al.
# Submitted via: dBpowerAMP V4.0
#
DISCID=960cda0c
DTITLE=Geoff Achison - Chasing My Tail
DYEAR=2002
DGENRE=blues
TTITLE0=Chance
TTITLE1=Kerry Lou
TTITLE2=You and I
TTITLE3=Begging Bowl
TTITLE4=Find Yourself a Fool
TTITLE5=Chasing My Tail
TTITLE6=Me and My Baby
TTITLE7=Reason To Live
TTITLE8=Let It Happen
TTITLE9=Kissing Angels
TTITLE10=Whipping Post
TTITLE11=All The Way
EXTD=
EXTT0=
EXTT1=
EXTT2=
EXTT3=
EXTT4=
EXTT5=
EXTT6=
EXTT7=
EXTT8=
EXTT9=
EXTT10=
EXTT11=
PLAYORDER=
